<?xml version="1.0" encoding="UTF-8"?>
<svg version="1.1" xmlns="http://www.w3.org/2000/svg" width="32" height="32">
<path d="M0 0 C2.5625 1 2.5625 1 4 3 C4.32061804 5.75514144 4.18311676 8.20746936 4 11 C4.721875 10.87625 5.44375 10.7525 6.1875 10.625 C9 11 9 11 11.875 13.4375 C14.4632761 16.88580456 14.33553654 19.68942212 13.8828125 23.8515625 C12.55372286 27.08607268 11.00058893 28.21864773 8 30 C5.1473369 30.56038337 2.39914712 30.56008595 -0.5 30.5 C-1.24636719 30.51546875 -1.99273437 30.5309375 -2.76171875 30.546875 C-6.31647295 30.5217086 -8.71827017 30.12652097 -11.9921875 28.65625 C-15.19838169 24.41459231 -14.72518385 20.16948685 -14.625 15 C-14.64433594 14.00226562 -14.66367188 13.00453125 -14.68359375 11.9765625 C-14.63515592 4.74963809 -14.63515592 4.74963809 -11.74609375 1.33984375 C-7.66050019 -0.65355396 -4.44174552 -0.65466025 0 0 Z M-9 4 C-9 5.32 -9 6.64 -9 8 C-4.76353233 9.0089034 -4.76353233 9.0089034 -0.625 8.0625 C-0.08875 7.711875 0.4475 7.36125 1 7 C0.34 6.01 -0.32 5.02 -1 4 C-2.97747122 3.63702064 -2.97747122 3.63702064 -5.125 3.8125 C-6.40375 3.874375 -7.6825 3.93625 -9 4 Z M-10 12 C-9.67 12.66 -9.34 13.32 -9 14 C-6.47266765 14.65555119 -6.47266765 14.65555119 -4 15 C-3.34 14.01 -2.68 13.02 -2 12 C-4.64 12 -7.28 12 -10 12 Z M-0.25 15.6875 C-2.18010547 17.86904316 -2.18010547 17.86904316 -2.4375 20.5625 C-2.15485315 22.99926829 -2.15485315 22.99926829 -0.875 24.8125 C1.87155972 26.55198782 3.81846974 26.39769128 7 26 C9.08333333 25.08333333 9.08333333 25.08333333 10 23 C10.00082535 19.42243314 10.00082535 19.42243314 9 16 C5.36691344 13.57794229 3.37380985 12.96964262 -0.25 15.6875 Z M-10 17 C-9.67 17.99 -9.34 18.98 -9 20 C-8.01 20 -7.02 20 -6 20 C-6 19.34 -6 18.68 -6 18 C-7.32 17.67 -8.64 17.34 -10 17 Z M-10 23 C-9.67 23.99 -9.34 24.98 -9 26 C-7.35 26 -5.7 26 -4 26 C-4.33 25.34 -4.66 24.68 -5 24 C-7.52733235 23.34444881 -7.52733235 23.34444881 -10 23 Z " fill="#FFFFFF" transform="translate(16,1)"/>
</svg>
